<svg width="42" height="66" viewBox="0 0 42 66" fill="none" xmlns="http://www.w3.org/2000/svg">
<mask id="mask0_38_1870" style="mask-type:luminance" maskUnits="userSpaceOnUse" x="0" y="17" width="42" height="25">
<path d="M42 17.9766H0V41.0292H42V17.9766Z" fill="white"/>
</mask>
<g mask="url(#mask0_38_1870)">
<mask id="mask1_38_1870" style="mask-type:luminance" maskUnits="userSpaceOnUse" x="-24" y="-14" width="88" height="89">
<path d="M-23.9219 -13.5234H63.7097V74.1081H-23.9219V-13.5234Z" fill="white"/>
</mask>
<g mask="url(#mask1_38_1870)">
<mask id="mask2_38_1870" style="mask-type:luminance" maskUnits="userSpaceOnUse" x="-16" y="12" width="71" height="36">
<path d="M-15.8516 12.8672H54.2537V47.9198H-15.8516V12.8672Z" fill="white"/>
</mask>
<g mask="url(#mask2_38_1870)">
<path d="M3.09931 32.9071C3.04322 32.7459 2.99415 32.5776 2.95209 32.4164C1.8935 28.4624 4.2911 24.3753 8.31514 23.3027C12.3392 22.2231 16.4614 24.5576 17.52 28.5115C17.562 28.6728 17.6041 28.841 17.6321 29.0093C17.7163 29.4089 17.4569 29.8085 17.0573 29.9206L4.05975 33.3978C3.65314 33.51 3.23251 33.2927 3.09931 32.9071ZM13.5078 36.7482L9.04914 37.968V39.0476C9.04914 39.6505 8.5584 40.1413 7.9555 40.1413H5.12325C4.52034 40.1413 4.0296 39.6505 4.0296 39.0476V38.0732L1.20436 38.1012C0.685584 38.1082 0.264952 37.6876 0.257941 37.1688C0.25093 36.7482 0.531351 36.3766 0.937962 36.2574L17.7141 31.6726C17.8193 31.6375 17.9245 31.6235 18.0226 31.6095C19.7121 31.0206 20.252 30.3966 20.3151 29.289V28.8473C20.3151 27.2209 21.633 25.9029 23.2595 25.9029H24.3812C26.0076 25.9029 27.3186 27.2209 27.3186 28.8473V30.0321C27.3186 30.9995 26.5334 31.7847 25.5659 31.7847H23.7152C22.9019 33.5093 21.1914 34.7011 18.5204 35.5143V39.0476C18.5204 39.6505 18.0296 40.1413 17.4267 40.1413H14.6015C13.9916 40.1413 13.5078 39.6505 13.5078 39.0476V36.7482Z" fill="white"/>
<g opacity="0.906939">
<path d="M34.2602 19.3125C37.8024 21.2828 40.2012 25.0644 40.2012 29.4016C40.2012 33.7414 37.7995 37.5249 34.2539 39.4942" stroke="white" stroke-width="2.10275" stroke-linecap="round"/>
</g>
<path d="M31.4821 24.3984C33.226 25.3844 34.4043 27.2558 34.4043 29.4003C34.4043 31.5487 33.2218 33.4231 31.4727 34.4075" stroke="white" stroke-width="2.09695" stroke-linecap="round"/>
</g>
</g>
</g>
</svg>
